<svg width="20" height="20" viewBox="0 0 20 20" fill="none" xmlns="http://www.w3.org/2000/svg">
<g clip-path="url(#clip0_3593_4691)">
<path d="M2.29297 10.0013C2.29297 5.74411 5.74411 2.29297 10.0013 2.29297V1.04297C5.05375 1.04297 1.04297 5.05375 1.04297 10.0013H2.29297ZM10.0013 17.7096C5.74411 17.7096 2.29297 14.2585 2.29297 10.0013H1.04297C1.04297 14.9489 5.05375 18.9596 10.0013 18.9596V17.7096ZM17.7096 10.0013C17.7096 14.2585 14.2585 17.7096 10.0013 17.7096V18.9596C14.9489 18.9596 18.9596 14.9489 18.9596 10.0013H17.7096ZM10.0013 2.29297C14.2585 2.29297 17.7096 5.74411 17.7096 10.0013H18.9596C18.9596 5.05375 14.9489 1.04297 10.0013 1.04297V2.29297Z" fill="#666666"/>
<path d="M12.5 7.5L7.5 12.5" stroke="#666666" stroke-width="1.25" stroke-linecap="round" stroke-linejoin="round"/>
<path d="M7.5 7.5L12.5 12.5" stroke="#666666" stroke-width="1.25" stroke-linecap="round" stroke-linejoin="round"/>
</g>
<defs>
<clipPath id="clip0_3593_4691">
<rect width="20" height="20" fill="white"/>
</clipPath>
</defs>
</svg>
